<svg width="50" height="54" viewBox="0 0 50 54" fill="none" xmlns="http://www.w3.org/2000/svg">
  <!-- Sombra sutil -->
  <g transform="translate(1, 1)" opacity="0.15">
    <path d="M22 0C30.284 0 37 6.716 37 15V15C37 20.523 34.209 25.422 30 28L22 44L14 28C9.791 25.422 7 20.523 7 15V15C7 6.716 13.716 0 22 0Z" fill="#000"/>
  </g>

  <!-- Ãcone principal -->
  <g transform="translate(0, 0)">
    <path d="M22 0C30.284 0 37 6.716 37 15V15C37 20.523 34.209 25.422 30 28L22 44L14 28C9.791 25.422 7 20.523 7 15V15C7 6.716 13.716 0 22 0Z" fill="url(#iconGradient)" stroke="url(#iconBorder)" stroke-width="0.5"/>
    
    <!-- Casa detalhada -->
    <g transform="translate(16.5, 9.5)">
      <path d="M5.5 2.5L9 0.5L12.5 2.5L11.5 3L9 1.5L6.5 3L5.5 2.5Z" fill="#1F2937"/>
      <rect x="6" y="3" width="6" height="6" fill="#2D4A3E" rx="0.3"/>
      <rect x="8.5" y="6" width="1.5" height="3" fill="#8B4513" rx="0.2"/>
      <circle cx="9.8" cy="7.5" r="0.1" fill="#FFD700"/>
      <rect x="6.5" y="4" width="1.2" height="1" fill="#87CEEB" stroke="#1F2937" stroke-width="0.1"/>
      <rect x="10.3" y="4" width="1.2" height="1" fill="#87CEEB" stroke="#1F2937" stroke-width="0.1"/>
      <line x1="7.1" y1="4" x2="7.1" y2="5" stroke="#1F2937" stroke-width="0.05"/>
      <line x1="6.5" y1="4.5" x2="7.7" y2="4.5" stroke="#1F2937" stroke-width="0.05"/>
      <line x1="10.9" y1="4" x2="10.9" y2="5" stroke="#1F2937" stroke-width="0.05"/>
      <line x1="10.3" y1="4.5" x2="11.5" y2="4.5" stroke="#1F2937" stroke-width="0.05"/>
    </g>

    <ellipse cx="22" cy="8" rx="6" ry="2" fill="url(#iconHighlight)" opacity="0.4"/>
  </g>

  <defs>
    <linearGradient id="iconGradient" x1="0%" y1="0%" x2="100%" y2="100%">
      <stop offset="0%" style="stop-color:#FB923C;stop-opacity:1" />
      <stop offset="50%" style="stop-color:#F97316;stop-opacity:1" />
      <stop offset="100%" style="stop-color:#EA580C;stop-opacity:1" />
    </linearGradient>
    
    <linearGradient id="iconBorder" x1="0%" y1="0%" x2="100%" y2="100%">
      <stop offset="0%" style="stop-color:#FDBA74;stop-opacity:0.8" />
      <stop offset="100%" style="stop-color:#C2410C;stop-opacity:0.8" />
    </linearGradient>
    
    <radialGradient id="iconHighlight" cx="50%" cy="50%" r="50%">
      <stop offset="0%" style="stop-color:#FFFFFF;stop-opacity:0.8" />
      <stop offset="100%" style="stop-color:#FFFFFF;stop-opacity:0" />
    </radialGradient>
  </defs>
</svg>